# xmcd CD database file
#
# Track frame offsets:
#	150
#	12917
#	33305
#	50455
#	70605
#	88152
#	105977
#	124980
#	142610
#	163597
#
# Disc length: 2463 seconds
#
# Revision: 1
# Processed by: cddbd v1.5.1PL2 Copyright (c) Steve Scherf et al.
# Submitted via: CDex 1.51
#
DISCID=76099d0a
DTITLE=ATL - The ATL Project
DYEAR=2004
DGENRE=R&B
TTITLE0=Intro
TTITLE1=Calling All Girls
TTITLE2=Make It Up With Love
TTITLE3=Let Me
TTITLE4=It's Us (Feat. Ciara Harris)
TTITLE5=Shawty (Feat. Cassidy)
TTITLE6=Holla At Ya Boy
TTITLE7=You Are
TTITLE8=I Wish (Feat. Ciara Harris)
TTITLE9=No More
EXTD=YEAR: 2004
EXTT0=
EXTT1=
EXTT2=
EXTT3=
EXTT4=
EXTT5=
EXTT6=
EXTT7=
EXTT8=
EXTT9=
PLAYORDER=
